HIERARCHY
ROOT pelvis
{
  OFFSET 0 100 0
  CHANNELS 6 Xposition Yposition Zposition Zrotation Xrotation Yrotation
  JOINT pelvis_right_femur
  {
    OFFSET -10.78128 -3.44521 -0.5502486
    CHANNELS 3 Zrotation Xrotation Yrotation
    JOINT right_femur_tibia
    {
      OFFSET -0.8047443 -44.0398 -0.1307829
      CHANNELS 3 Zrotation Xrotation Yrotation
      JOINT right_tibia_foot
      {
        OFFSET 3.006224 -47.83518 -5
        CHANNELS 3 Zrotation Xrotation Yrotation
        End Site
        {
          OFFSET 0 -5 15
        }
      }
    }
  }
  JOINT pelvis_left_femur
  {
    OFFSET 10.78128 -3.44521 -0.5502486
    CHANNELS 3 Zrotation Xrotation Yrotation
    JOINT left_femur_tibia
    {
      OFFSET 0.8047443 -44.0398 -0.1307829
      CHANNELS 3 Zrotation Xrotation Yrotation
      JOINT left_tibia_foot
      {
        OFFSET -4.370144 -48.10324 -4.275266
        CHANNELS 3 Zrotation Xrotation Yrotation
        End Site
        {
          OFFSET 0 -5 15
        }
      }
    }
  }
  JOINT pelvis_spine1
  {
    OFFSET 0 6.468898 -3.129235
    CHANNELS 3 Zrotation Xrotation Yrotation
    JOINT spine1
    {
      OFFSET 0 23.15396 4.99043
      CHANNELS 3 Zrotation Xrotation Yrotation
      JOINT spine2
      {
        OFFSET 0 20.79997 -5.064912
        CHANNELS 3 Zrotation Xrotation Yrotation
        JOINT neck
        {
          OFFSET 0 14.38658 9.616178
          CHANNELS 3 Zrotation Xrotation Yrotation
          End Site
          {
            OFFSET 0 20 0
          }
        }
      }
      JOINT right_manubrium
      {
        OFFSET -5.722621 16.35077 3.967754
        CHANNELS 3 Zrotation Xrotation Yrotation
        JOINT right_clavicle
        {
          OFFSET -13.16364 1.694482 -4.693211
          CHANNELS 3 Zrotation Xrotation Yrotation
          JOINT right_humerus
          {
            OFFSET -28.5034 -0.3100689 -2.792744
            CHANNELS 3 Zrotation Xrotation Yrotation
            JOINT right_radius
            {
              OFFSET -25.15693 0.02248979 -1.271978
              CHANNELS 3 Zrotation Xrotation Yrotation
              End Site
              {
                OFFSET -15 0 0
              }
            }
          }
        }
      }
      JOINT left_manubrium
      {
        OFFSET 5.722621 16.35077 3.967754
        CHANNELS 3 Zrotation Xrotation Yrotation
        JOINT left_clavicle
        {
          OFFSET 13.16364 1.694482 -4.693211
          CHANNELS 3 Zrotation Xrotation Yrotation
          JOINT left_humerus
          {
            OFFSET 29.39168 -1.063119 -2.237045
            CHANNELS 3 Zrotation Xrotation Yrotation
            JOINT left_radius
            {
              OFFSET 24.59957 -0.9528479 0.9047498
              CHANNELS 3 Zrotation Xrotation Yrotation
              End Site
              {
                OFFSET 15 -0 -0
              }
            }
          }
        }
      }
    }
  }
}
MOTION
Frames: 15
Frame Time: 0.0416666666667
-738.613 63.02156 3030.061 -9.376492 -7.244462 -54.47925 3.901235 2.273508 -6.235328 -0 21.28463 -0 -15.45198 9.247677 1.756146 -1.464155 -3.654938 -2.675354 -0 31.24961 -0 3.427642 -6.340607 16.19425 0.1682901 -2.156596 4.508884 -1.026372 16.32105 -5.217012 1.428028 22.89198 3.963399 2.848478 -17.58906 4.679995 -4.449887 -23.34185 11.83867 95.14119 15.07891 -14.75457 -0 0 12.59358 -27.51197 9.161958 11.87316 5.581282 -26.07163 -9.169007 -87.89445 4.570378 18.8387 0 0 -12.69708 19.32564 12.75946 -12.24691
-743.9475 63.07905 3034.548 -9.39336 -7.213984 -54.66501 3.905332 2.482547 -6.214158 -0 21.28882 -0 -15.42547 9.148796 1.764213 -1.43029 -3.868452 -2.668397 -0 31.11124 -0 3.42812 -6.307641 16.23375 0.1640357 -2.154153 4.539176 -1.037466 16.31208 -5.19137 1.428169 22.88868 3.958825 2.845176 -17.58817 4.67723 -4.445222 -23.38711 11.83762 95.07759 15.10042 -14.66195 -0 0 12.69926 -27.52864 9.159581 11.90733 5.573612 -26.02551 -9.149851 -87.93995 4.595628 18.94768 0 0 -12.59896 19.27585 12.76634 -12.18242
-749.2888 63.12852 3039.021 -9.411436 -7.187032 -54.85077 3.901057 2.676433 -6.193831 -0 21.34489 -0 -15.39687 9.071977 1.771611 -1.40571 -4.057077 -2.668969 -0 30.95124 -0 3.432179 -6.285322 16.27417 0.1562007 -2.152367 4.565046 -1.049842 16.30297 -5.166058 1.42888 22.88712 3.956091 2.842574 -17.58506 4.676714 -4.439084 -23.4272 11.83534 95.0183 15.12026 -14.57248 -0 0 12.7977 -27.54777 9.15518 11.94112 5.566215 -25.97852 -9.1323 -87.98153 4.622219 19.04729 0 0 -12.49949 19.22701 12.7729 -12.11915
-754.637 63.17234 3043.48 -9.431064 -7.16381 -55.03452 3.888802 2.84178 -6.175802 -0 21.44891 -0 -15.36817 9.023003 1.777722 -1.392112 -4.20756 -2.676751 -0 30.78263 -0 3.439247 -6.274869 16.31246 0.1454155 -2.151303 4.584672 -1.062679 16.29442 -5.14282 1.430146 22.88745 3.955335 2.840838 -17.57978 4.678443 -4.431979 -23.45916 11.83201 94.96768 15.13681 -14.49254 -0 0 12.8817 -27.56827 9.149159 11.97217 5.559548 -25.93397 -9.117681 -88.01613 4.648125 19.13027 0 0 -12.4057 19.18255 12.77856 -12.06159
-759.9925 63.21338 3047.926 -9.452437 -7.144222 -55.21443 3.869544 2.967474 -6.161341 -0 21.59348 -0 -15.34132 9.005464 1.782033 -1.390347 -4.309654 -2.690928 -0 30.61868 -0 3.44857 -6.276647 16.34576 0.13251 -2.150979 4.596723 -1.07513 16.2871 -5.123227 1.431908 22.8897 3.956554 2.840068 -17.57254 4.682251 -4.424464 -23.48066 11.82786 94.92935 15.14877 -14.42771 -0 0 12.94523 -27.58892 9.142025 11.99837 5.554015 -25.89498 -9.107073 -88.04123 4.671436 19.19071 0 0 -12.3241 19.1455 12.78282 -12.01368
-765.3562 63.25472 3052.359 -9.475534 -7.127839 -55.38895 3.844776 3.045386 -6.151439 -0 21.76806 -0 -15.31814 9.020381 1.784196 -1.400352 -4.356853 -2.71029 -0 30.47165 -0 3.459325 -6.290203 16.37171 0.1184486 -2.151373 4.600455 -1.086359 16.28152 -5.108578 1.434053 22.8937 3.959612 2.840296 -17.5638 4.687825 -4.417101 -23.49024 11.8232 94.90594 15.15527 -14.38236 -0 0 12.984 -27.60843 9.134341 12.01797 5.549958 -25.8642 -9.101209 -88.05511 4.690513 19.22455 0 0 -12.26023 19.11835 12.78535 -11.97865
-770.7292 63.2994 3056.778 -9.500095 -7.113908 -55.55693 3.816388 3.070874 -6.146735 -0 21.95964 -0 -15.30023 9.066093 1.784075 -1.421169 -4.346818 -2.733342 -0 30.35179 -0 3.470707 -6.314337 16.3886 0.1042576 -2.152438 4.595757 -1.095594 16.27807 -5.099821 1.436424 22.89913 3.964254 2.841485 -17.55418 4.694735 -4.410412 -23.48745 11.81837 94.89883 15.15598 -14.35939 -0 0 12.99569 -27.62542 9.126674 12.0297 5.547639 -25.84367 -9.100421 -88.05694 4.704097 19.22985 0 0 -12.21831 19.10282 12.78601 -11.95874
-776.1128 63.35011 3061.182 -9.525647 -7.101419 -55.71769 3.786522 3.043035 -6.147476 -0 22.15378 -0 -15.28878 9.138449 1.781754 -1.451038 -4.28145 -2.758425 -0 30.2666 -0 3.48199 -6.347204 16.39546 0.09095015 -2.154103 4.583148 -1.102176 16.27691 -5.097492 1.438827 22.90556 3.970129 2.843536 -17.5445 4.702462 -4.404846 -23.4728 11.81372 94.90813 15.15107 -14.35998 -0 0 12.98012 -27.6386 9.119554 12.03284 5.547225 -25.83467 -9.104625 -88.04688 4.711384 19.20692 0 0 -12.20097 19.09985 12.78486 -11.95511
-781.5082 63.40898 3065.572 -9.551575 -7.08921 -55.87112 3.757393 2.964728 -6.153504 -0 22.33579 -0 -15.28459 9.231255 1.777515 -1.487566 -4.166639 -2.783812 -0 30.22058 -0 3.492545 -6.386434 16.39212 0.07945488 -2.156277 4.563716 -1.105621 16.27806 -5.101679 1.441054 22.91243 3.976812 2.846291 -17.5356 4.710439 -4.400749 -23.44773 11.80959 94.93271 15.14118 -14.38363 -0 0 12.93914 -27.64686 9.113439 12.02729 5.548762 -25.83766 -9.113349 -88.02599 4.712051 19.15817 0 0 -12.20904 19.10944 12.78213 -11.96774
-786.9168 63.47737 3069.947 -9.577216 -7.0761 -56.01761 3.731116 2.842324 -6.164281 -0 22.49204 -0 -15.28791 9.336917 1.771797 -1.527929 -4.011701 -2.807812 -0 30.21521 -0 3.501831 -6.42927 16.37917 0.07055214 -2.158841 4.53902 -1.105668 16.28132 -5.112012 1.442909 22.91919 3.98383 2.849548 -17.52831 4.718093 -4.398357 -23.41442 11.80628 94.97037 15.12731 -14.42817 -0 0 12.87645 -27.64943 9.108697 12.01357 5.552163 -25.85223 -9.125801 -87.99612 4.706244 19.08784 0 0 -12.24156 19.13074 12.77815 -11.99548
-792.3395 63.55586 3074.307 -9.601968 -7.061024 -56.15809 3.709543 2.685234 -6.178935 -0 22.61113 -0 -15.29844 9.447182 1.76513 -1.569117 -3.828592 -2.828845 -0 30.2492 -0 3.509382 -6.472727 16.35784 0.06482286 -2.161646 4.510954 -1.102314 16.2864 -5.12768 1.444234 22.92531 3.990694 2.853074 -17.52326 4.724883 -4.397787 -23.37555 11.80402 95.01805 15.11065 -14.49001 -0 0 12.79713 -27.64601 9.105597 11.99277 5.557199 -25.87717 -9.140957 -87.95971 4.694543 19.00159 0 0 -12.2958 19.16207 12.77332 -12.03612
-797.7773 63.64422 3078.65 -9.625367 -7.043142 -56.29389 3.694126 2.505211 -6.196338 -0 22.68492 -0 -15.31536 9.553875 1.758068 -1.608162 -3.630953 -2.845532 -0 30.31891 -0 3.514787 -6.513775 16.32986 0.06261243 -2.164514 4.481596 -1.09583 16.29289 -5.147492 1.444925 22.93032 3.996925 2.856617 -17.52086 4.730342 -4.399037 -23.33408 11.80295 95.07209 15.09251 -14.56438 -0 0 12.70725 -27.63685 9.104297 11.96648 5.563505 -25.91052 -9.157654 -87.91955 4.677893 18.90598 0 0 -12.36754 19.20105 12.76804 -12.08658
-803.2309 63.74154 3082.977 -9.647146 -7.021918 -56.42668 3.68582 2.315488 -6.215192 -0 22.70908 -0 -15.33735 9.649537 1.751139 -1.642358 -3.433089 -2.856767 -0 30.41875 -0 3.517698 -6.549533 16.29733 0.06401172 -2.167241 4.453051 -1.08674 16.30029 -5.16996 1.444949 22.93389 4.002092 2.859925 -17.52123 4.734106 -4.401993 -23.293 11.80314 95.12856 15.07415 -14.64577 -0 0 12.6134 -27.62271 9.104851 11.93666 5.570604 -25.94977 -9.174686 -87.87858 4.657528 18.80797 0 0 -12.45134 19.24478 12.76267 -12.14309
-808.7005 63.84629 3087.287 -9.66724 -6.997138 -56.55827 3.685037 2.129806 -6.234132 -0 22.68332 -0 -15.36272 9.727915 1.744802 -1.669434 -3.248949 -2.861793 -0 30.54159 -0 3.51786 -6.577479 16.26257 0.06885604 -2.169619 4.427307 -1.075779 16.3081 -5.193412 1.444336 22.93585 4.005836 2.862766 -17.52417 4.735936 -4.406436 -23.25513 11.80454 95.1835 15.05675 -14.72826 -0 0 12.52216 -27.60486 9.107198 11.90555 5.577943 -25.992 -9.190887 -87.83968 4.634894 18.71442 0 0 -12.54096 19.29006 12.75752 -12.20153
-814.1865 63.95659 3091.58 -9.685754 -6.968898 -56.69055 3.691641 1.961408 -6.251822 -0 22.61115 -0 -15.38955 9.784283 1.739426 -1.687687 -3.091178 -2.860266 -0 30.67918 -0 3.515157 -6.59564 16.22797 0.07674149 -2.171451 4.406101 -1.063823 16.3158 -5.216124 1.443176 22.93612 4.007899 2.86494 -17.52928 4.735738 -4.412053 -23.22295 11.80701 95.23319 15.04135 -14.80602 -0 0 12.43973 -27.58485 9.111175 11.87539 5.584947 -26.03413 -9.2052 -87.80544 4.611553 18.63166 0 0 -12.62987 19.33361 12.75284 -12.25771
